<svg xmlns="http://www.w3.org/2000/svg" viewBox="0 0 49 49"><defs><style>.cls-1{fill:none;stroke:#000;stroke-miterlimit:10;}.cls-2{fill:#fff;}</style></defs><title>Asset 6tweet</title><g id="Layer_2" data-name="Layer 2"><g id="Layer_1-2" data-name="Layer 1"><circle class="cls-1" cx="24.5" cy="24.5" r="24"/><path d="M35.88,23.67v.19a11.44,11.44,0,0,1-1.45,4.88c-1.09,1.74-4,6.35-10.29,6.35-4.27,0-7.44-1.06-9.71-3.24A11.75,11.75,0,0,1,11,24.68a24.22,24.22,0,0,1,.07-3.55,10.7,10.7,0,0,0,2.15,1.79,10.79,10.79,0,0,0,4.83,1.33h.24c1.26,0,3.57-.39,4.88-2.17a12.13,12.13,0,0,0,1.38-3,11.12,11.12,0,0,1,1.11-2.56c.94-1.3,2.08-2.51,4.15-2.51a4.09,4.09,0,0,1,.53,0,5.83,5.83,0,0,1,4.18,2l.07.07a9.23,9.23,0,0,1,1.4,3.6l0,.17,3.31,1.64Z"/><path class="cls-2" d="M31.87,20.31a1.43,1.43,0,0,1-1.42-1.42,1.42,1.42,0,1,1,1.42,1.42Z"/></g></g></svg>