<svg xmlns="http://www.w3.org/2000/svg" viewBox="0 0 161.27 147.49"><defs><style>.cls-1{fill:red;}</style></defs><title>buyAsset 1</title><g id="Layer_2" data-name="Layer 2"><g id="Layer_1-2" data-name="Layer 1"><path class="cls-1" d="M157.18,88.7l-30.25-4.08-14.78-26A22.84,22.84,0,0,0,92.61,47.24H53.19A22.62,22.62,0,0,0,31.95,62L24,84.11,3.91,88.36A4.93,4.93,0,0,0,0,93.29V122a4.93,4.93,0,0,0,4.93,4.93H16.82a22.33,22.33,0,0,0,44.52,0H99.92a22.33,22.33,0,0,0,44.52,0h11.89a4.93,4.93,0,0,0,4.93-4.93V93.63A4.68,4.68,0,0,0,157.18,88.7ZM39.08,137a11.72,11.72,0,1,1,11.72-11.72A11.75,11.75,0,0,1,39.08,137Zm1.19-53a1.09,1.09,0,0,1-1-1.36L45,67a8.43,8.43,0,0,1,8-5.61h7a1,1,0,0,1,1,.85l1.87,20.73a1,1,0,0,1-1,1Zm37-.85L75.45,62.36a1,1,0,0,1,1-1H92.61a8.85,8.85,0,0,1,7.48,4.25l9.69,16.82a1.06,1.06,0,0,1-.85,1.53H78.16A.8.8,0,0,1,77.32,83.09Zm45,53.87a11.72,11.72,0,1,1,11.72-11.72A11.75,11.75,0,0,1,122.35,137Z"/><path class="cls-1" d="M47.07,35.17A17.5,17.5,0,0,0,63.55,23.62h5.61c.17,0,.51.17.68.17l3.23,2.89a.64.64,0,0,0,1,0l4.76-4.25a.64.64,0,0,1,1,0l4.76,4.25a.64.64,0,0,0,1,0l4.76-4.25a.64.64,0,0,1,1,0l4.76,4.25a.64.64,0,0,0,1,0l3.23-2.89c.17-.17.34-.17.68-.17H105a1.3,1.3,0,0,0,.85-.34l4.08-5.1a1,1,0,0,0,0-1.36l-4.08-5.1a1.3,1.3,0,0,0-.85-.34H63.55A17.65,17.65,0,0,0,29.4,17.67,17.51,17.51,0,0,0,47.07,35.17Zm-6.8-21.58a3.91,3.91,0,1,1-3.91,3.91A3.85,3.85,0,0,1,40.27,13.59Z"/></g></g></svg>