<svg xmlns="http://www.w3.org/2000/svg" viewBox="0 0 118.97 122.01"><defs><style>.cls-1{fill:red;}</style></defs><title>repairAsset 1</title><g id="Layer_2" data-name="Layer 2"><g id="Layer_1-2" data-name="Layer 1"><path class="cls-1" d="M59.47,30.4A30.61,30.61,0,1,0,90.08,61,30.61,30.61,0,0,0,59.47,30.4Zm0,51A20.44,20.44,0,1,1,79.92,61,20.44,20.44,0,0,1,59.47,81.44Z"/><path class="cls-1" d="M116,71.71l-9.58-7.5c.08-1,.13-2.07.13-3.2a25.84,25.84,0,0,0-.13-3.2L116,50.29a7.92,7.92,0,0,0,1.92-10.17L106.73,20.87a7.92,7.92,0,0,0-9.57-3.51H97L85.69,21.91a46.14,46.14,0,0,0-5.52-3.2L78.44,6.8A7.82,7.82,0,0,0,70.66,0H48.29a7.8,7.8,0,0,0-7.78,6.71L38.79,18.77A47.48,47.48,0,0,0,33.3,22L21.86,17.4a7.8,7.8,0,0,0-9.67,3.42L1.08,40.14A7.89,7.89,0,0,0,3,50.31l9.58,7.5a25.54,25.54,0,0,0-.14,3.2,28.08,28.08,0,0,0,.13,3.2L3,71.72a7.89,7.89,0,0,0-2,10v.11l11.12,19.24a7.92,7.92,0,0,0,9.61,3.57h.15l11.32-4.55a46.29,46.29,0,0,0,5.52,3.2l1.72,12A7.83,7.83,0,0,0,48.29,122H70.66a7.8,7.8,0,0,0,7.78-6.71l1.73-12.06a47.61,47.61,0,0,0,5.5-3.2l11.44,4.58a7.84,7.84,0,0,0,9.68-3.46l11.13-19.43A7.89,7.89,0,0,0,116,71.71ZM98.87,94.4l-12-4.83a5.08,5.08,0,0,0-4.94.65,37.65,37.65,0,0,1-8.32,4.84,5.08,5.08,0,0,0-3.1,4l-1.82,12.81H50.3L48.46,99a5.08,5.08,0,0,0-3.1-4,35.59,35.59,0,0,1-8.29-4.82,5.08,5.08,0,0,0-5-.69l-12,4.84L10.85,78.47l10.17-8a5.08,5.08,0,0,0,1.91-4.64,35.07,35.07,0,0,1,0-9.7,5.08,5.08,0,0,0-1.91-4.64l-10.17-8,9.18-15.91,12,4.83A5.08,5.08,0,0,0,37,31.77a37.67,37.67,0,0,1,8.32-4.84,5.08,5.08,0,0,0,3.1-4l1.83-12.79H68.65L70.48,23a5.08,5.08,0,0,0,3.1,4,35.59,35.59,0,0,1,8.3,4.82,5.08,5.08,0,0,0,5,.69l12-4.84,9.2,15.93-10.17,8A5.08,5.08,0,0,0,96,56.16a34.43,34.43,0,0,1,0,9.7,5.08,5.08,0,0,0,1.91,4.64l10.17,8Z"/></g></g></svg>